<svg width="188" height="48" viewBox="0 0 188 48" fill="none" xmlns="http://www.w3.org/2000/svg">
<path fill-rule="evenodd" clip-rule="evenodd" d="M10.1093 4.69602L10.1977 4.7331C10.3115 4.78025 10.4073 4.81996 10.5132 4.88028C11.1337 5.21893 11.7542 5.56101 12.3756 5.90378L12.4668 5.95425C13.4042 6.47053 14.343 6.98817 15.2901 7.49792C15.3795 7.54233 15.5582 7.58662 15.6471 7.52012C16.7632 6.92122 17.9241 6.4331 19.1296 6.0782C19.3078 6.01171 19.4198 5.9451 19.4645 5.7455C19.6556 5.04909 19.8542 4.35267 20.0555 3.65626C20.1835 3.21392 20.3125 2.77158 20.4415 2.32924C20.6078 1.75986 20.7736 1.19048 20.9376 0.621107C21.0938 0.1109 21.2278 0 21.7635 0H28.2144C28.6828 0 28.8395 0.1109 28.973 0.576816L30.4466 5.76759C30.4664 5.81772 30.5005 5.87689 30.5438 5.93079C30.5963 5.99625 30.6631 6.05382 30.7364 6.0782C31.9419 6.4553 33.0801 6.94331 34.1963 7.52012C34.3529 7.60882 34.4865 7.60882 34.6426 7.52012C36.213 6.64105 37.8054 5.76198 39.3978 4.88279L39.4421 4.85807C39.6894 4.72142 39.8608 4.67736 40.0289 4.7363C40.1335 4.77304 40.2371 4.84983 40.3574 4.96909C41.8978 6.50005 43.4377 8.03056 44.9776 9.58316C45.2904 9.89377 45.3346 10.0712 45.1117 10.4705C44.6653 11.2691 44.2245 12.0621 43.7836 12.8552C43.4966 13.3717 43.2097 13.8882 42.9208 14.4063L42.4551 15.2398C42.3662 15.3952 42.3662 15.4838 42.433 15.6614C42.7186 16.3189 42.9964 16.9838 43.2755 17.6519L43.2824 17.6684C43.481 18.1445 43.6804 18.6221 43.884 19.0997C43.9287 19.2107 44.0623 19.3437 44.1964 19.3881C45.213 19.686 46.2296 19.9764 47.2509 20.268C47.9782 20.4758 48.7084 20.6842 49.4422 20.8965C49.8885 21.0296 50 21.1849 50 21.6287V28.1284C50 28.5498 49.866 28.7051 49.4643 28.816C48.5388 29.0837 47.6134 29.3514 46.688 29.616C45.8501 29.8555 45.0122 30.0925 44.1743 30.3245C44.0176 30.3688 43.9287 30.4354 43.884 30.6128C43.5045 31.8107 43.0355 32.9642 42.4551 34.0513C42.4109 34.14 42.4109 34.3397 42.4551 34.4284C43.0963 35.6045 43.7495 36.7686 44.406 37.9385C44.6409 38.3572 44.8763 38.7767 45.1117 39.1977C45.3346 39.597 45.3125 39.7966 45.0002 40.1295C44.23 40.8948 43.4653 41.6601 42.7011 42.4254L41.3445 43.7816C41.0308 44.0948 40.7167 44.4081 40.4016 44.7213C40.0672 45.0541 39.9105 45.0763 39.4868 44.8544C38.694 44.4108 37.9017 43.9727 37.1094 43.5345C36.3751 43.1284 35.6404 42.6005 34.9057 42.19V35.5352C37.8059 32.8797 39.6226 29.0732 39.6226 24.8452C39.6226 16.8193 33.076 10.3131 25 10.3131C16.924 10.3131 10.3774 16.8193 10.3774 24.8452C10.3774 29.0732 12.1941 32.8797 15.0943 35.5352V42.1817C14.2067 42.6842 13.313 43.3017 12.4157 43.799C11.7971 44.1419 11.1775 44.4853 10.5579 44.8323C10.1341 45.0763 9.95541 45.0319 9.59841 44.6992C8.08013 43.1907 6.54021 41.6601 5.02239 40.1295C4.6875 39.7966 4.66539 39.6193 4.88834 39.1977C5.17993 38.6831 5.46921 38.1684 5.75757 37.6537L6.21637 36.8352C6.65721 36.0477 7.09804 35.2602 7.54487 34.4728C7.63377 34.3175 7.63377 34.1844 7.56698 34.0291C7.27908 33.3662 6.999 32.6956 6.71755 32.022C6.51902 31.5459 6.31956 31.0683 6.11595 30.5907C6.07127 30.4797 5.93768 30.3688 5.82575 30.3245C4.06241 29.8143 2.27696 29.3041 0.491045 28.7938C0.111476 28.6829 0 28.5055 0 28.1284V21.562C0 21.1627 0.111476 20.9853 0.513617 20.8744C2.25439 20.3642 3.99561 19.8761 5.75896 19.3881C6.00448 19.3216 6.09384 19.1885 6.18321 18.9666C6.62957 17.8575 7.09804 16.7484 7.56698 15.6614C7.65634 15.4838 7.65634 15.3507 7.56698 15.1956C7.12061 14.408 6.67978 13.6205 6.23894 12.833C5.79811 12.0455 5.35727 11.258 4.91091 10.4705C4.6875 10.049 4.70961 9.89377 5.0445 9.56096C5.61662 8.99226 6.18597 8.42357 6.75394 7.85488L8.69279 5.91568C9.00879 5.60015 9.32525 5.28462 9.64263 4.96909C9.65645 4.92766 9.68363 4.89264 9.71864 4.86071C9.7647 4.81905 9.82505 4.78265 9.88862 4.74408L9.9591 4.70071C9.98028 4.6872 10.0015 4.67324 10.0222 4.65848L10.1093 4.69602Z" fill="white"/>
<path fill-rule="evenodd" clip-rule="evenodd" d="M31.0095 32.4316V30.3759L34.9057 26.4974V19.0976L30.5162 15.1825C30.0685 14.7831 29.3366 15.0857 29.3366 15.6702V22.1818L25.0884 23.8962L20.2057 22.1897V15.6863C20.2057 15.084 19.4351 14.7894 18.9983 15.2247L15.0943 19.1166V26.4784L19.4371 30.3569V42.19H20.6578V29.8902L16.3151 26.0117V19.5833L18.9849 16.9218V22.9744L25.0762 25.1464L30.5573 22.9823V16.8127L33.6849 19.6023V25.9927L29.7887 29.8712V42.19H31.0015V32.4316H31.0095ZM24.0014 28.6153C24.0014 28.2939 23.7281 28.0335 23.391 28.0335C23.0539 28.0335 22.7806 28.2939 22.7806 28.6153V32.7092C22.7806 33.0305 23.0539 33.291 23.391 33.291C23.7281 33.291 24.0014 33.0305 24.0014 32.7092V28.6153ZM27.6185 28.6153C27.6185 28.2939 27.3452 28.0335 27.0081 28.0335C26.671 28.0335 26.3977 28.2939 26.3977 28.6153V36.1568C26.3977 36.4781 26.671 36.7385 27.0081 36.7385C27.3452 36.7385 27.6185 36.4781 27.6185 36.1568V28.6153Z" fill="white"/>
<path d="M64.3292 20.9943C62.838 20.9943 61.7798 20.6535 61.0582 19.9717C60.3848 19.29 60 18.17 60 16.7091V9.45349C60 7.84654 60.3367 6.72654 61.0582 5.9961C61.7798 5.26567 62.9342 4.9248 64.5216 4.9248H72.6507V8.13871H65.4355C64.5216 8.13871 64.0886 8.57697 64.0886 9.50218V16.8065C64.0886 17.1474 64.1848 17.4396 64.3773 17.6343C64.5697 17.8291 64.8583 17.9265 65.195 17.9265C65.4836 17.9265 65.8203 17.9265 66.2051 17.9265C66.5899 17.9265 66.9747 17.9265 67.3596 17.9265C67.7444 17.9265 68.1773 17.9265 68.6102 17.9265C69.0431 17.9265 69.4279 17.8778 69.8127 17.7317C70.7267 17.7317 71.6887 17.7317 72.6507 17.7317V20.7021C71.6406 20.8969 70.6305 20.9943 69.6203 20.9943C68.7545 20.9943 67.8406 20.9943 66.8785 20.9943C66.0127 20.9943 65.1469 20.9943 64.3292 20.9943Z" fill="white"/>
<path d="M74.0442 12.2299C74.0442 11.1099 74.3809 10.1847 75.0062 9.55165C75.6315 8.9186 76.5455 8.57774 77.6518 8.57774H82.1734C83.3278 8.57774 84.1936 8.9186 84.819 9.55165C85.4443 10.1847 85.781 11.1099 85.781 12.2299V16.4664H77.9885V17.3429C77.9885 17.5377 78.0847 17.7325 78.229 17.8786C78.3733 18.0247 78.5657 18.0734 78.8063 18.0734C79.4316 18.0734 80.1531 18.0734 80.9227 18.0734C81.6924 18.0734 82.4139 18.0734 83.0392 18.0734C83.8088 17.976 84.5785 17.8786 85.3481 17.8299V20.7029C84.4823 20.849 83.5683 20.8977 82.6544 20.8977C81.8848 21.0438 81.0189 21.0925 80.105 21.0925C79.1911 21.0925 78.2771 21.0925 77.4594 21.0925C76.4493 21.0925 75.6315 20.8003 75.0062 20.1673C74.3809 19.5342 74.0923 18.7064 74.0923 17.6838V12.2299H74.0442ZM78.9025 11.4508C78.2771 11.4508 77.9885 11.7429 77.9885 12.376V13.6421H81.8367V12.376C81.8367 11.7429 81.548 11.4508 80.9227 11.4508H78.9025Z" fill="white"/>
<path d="M91.7965 20.9465V24.8421H87.8522V8.82128H91.3636L91.6041 9.98997C91.9889 9.74649 92.4219 9.50302 92.8548 9.30823C93.2396 9.16215 93.6725 8.96736 94.1535 8.82128C94.6345 8.67519 95.1156 8.6265 95.6447 8.6265H96.6548C97.6649 8.6265 98.4827 8.91866 99.108 9.55171C99.7333 10.1847 100.022 11.0126 100.022 12.0352V17.2943C100.022 18.4143 99.6852 19.3395 99.0599 19.9726C98.4346 20.6056 97.5206 20.9465 96.4143 20.9465H91.7965ZM91.7965 17.8787H95.1637C95.789 17.8787 96.0776 17.5865 96.0776 16.9534V12.7169C96.0776 12.4734 95.9814 12.2787 95.8371 12.1326C95.6928 11.9865 95.5004 11.8891 95.2599 11.8891H94.4902C94.2016 11.8891 93.913 11.8891 93.5763 11.9378C93.2396 11.9865 92.951 12.0352 92.7105 12.0839C92.3737 12.1326 92.0851 12.23 91.7965 12.3274V17.8787Z" fill="white"/>
<path d="M114.066 17.7325C114.066 18.1708 113.97 18.609 113.825 18.9986C113.681 19.3882 113.44 19.729 113.152 20.0212C112.863 20.3134 112.527 20.5569 112.094 20.7029C111.661 20.849 111.228 20.9464 110.699 20.9464H102.088V8.82123H109.977C110.506 8.82123 110.939 8.91863 111.372 9.06471C111.805 9.2108 112.142 9.45428 112.43 9.74645C112.719 10.0386 112.959 10.3795 113.104 10.7204C113.248 11.1099 113.344 11.4995 113.344 11.9378C113.344 12.5708 113.2 13.1551 112.863 13.5934C112.527 14.0804 112.094 14.3725 111.516 14.5673C112.19 14.7134 112.767 15.0056 113.248 15.5899C113.825 16.0769 114.066 16.8073 114.066 17.7325ZM109.448 12.376C109.448 12.1325 109.352 11.9378 109.208 11.7917C109.063 11.6456 108.871 11.5482 108.63 11.5482H106.033V13.6421H108.63C108.871 13.6421 109.063 13.5447 109.208 13.3986C109.352 13.2525 109.448 13.0577 109.448 12.8143V12.376ZM110.121 17.0508C110.121 16.8073 110.025 16.6125 109.881 16.4664C109.737 16.3203 109.544 16.223 109.304 16.223H106.033V18.1708H109.304C109.544 18.1708 109.737 18.0734 109.881 17.9273C110.025 17.7812 110.121 17.5864 110.121 17.343V17.0508Z" fill="white"/>
<path d="M123.446 8.82123H127.631V20.9464H123.687V14.3238L119.839 20.9464H115.654V8.82123H119.598V15.4438L123.446 8.82123Z" fill="white"/>
<path d="M129.653 12.4734C129.653 11.3534 129.989 10.4282 130.615 9.79515C131.24 9.1621 132.154 8.82123 133.26 8.82123H140.476V11.8891H134.463C133.838 11.8891 133.549 12.1812 133.549 12.8143V17.2456C133.549 17.4891 133.645 17.6838 133.79 17.8299C133.934 17.976 134.126 18.0734 134.367 18.0734C134.944 18.0734 135.617 18.0734 136.291 18.0734C137.012 18.0734 137.686 18.0247 138.263 17.976C138.985 17.9273 139.706 17.8299 140.428 17.7812V20.7516C139.562 20.8977 138.744 20.9464 137.878 20.9464C137.157 21.0925 136.339 21.1412 135.473 21.1412C134.607 21.1412 133.789 21.1412 132.972 21.1412C131.962 21.1412 131.144 20.849 130.519 20.216C129.893 19.583 129.605 18.7551 129.605 17.7325V12.4734H129.653Z" fill="white"/>
<path d="M150.332 13.3012V8.82123H154.276V20.9464H150.332V16.369H146.243V20.9464H142.347V8.82123H146.292V13.3012H150.332Z" fill="white"/>
<path d="M156.589 20.9464V8.82123H160.533V12.6195H164.958C165.969 12.6195 166.786 12.9117 167.412 13.5447C168.037 14.1777 168.326 15.0056 168.326 16.0282V17.5377C168.326 18.5603 168.037 19.3882 167.412 20.0212C166.786 20.6543 165.969 20.9464 164.958 20.9464H156.589ZM163.563 18.0734C163.804 18.0734 163.996 17.976 164.141 17.8299C164.285 17.6838 164.381 17.4891 164.381 17.2456V16.223C164.381 15.9795 164.285 15.7847 164.141 15.6386C163.996 15.4925 163.804 15.3951 163.563 15.3951H160.533V18.0247H163.563V18.0734ZM173.761 20.9464H169.817V8.82123H173.761V20.9464Z" fill="white"/>
<path d="M183.815 8.82085H188V20.9461H184.056V14.3235L180.208 20.9461H176.023V8.82085H179.967V15.4434L183.815 8.82085ZM180.785 7.65216C178.813 7.65216 177.851 6.67825 177.851 4.68173V4H180.785V4.58434C180.785 4.82782 180.881 5.0226 181.025 5.16869C181.17 5.31478 181.362 5.41217 181.602 5.41217H182.276C182.516 5.41217 182.709 5.31478 182.853 5.16869C182.997 5.0226 183.094 4.82782 183.094 4.58434V4H186.028V4.68173C186.028 6.67825 185.066 7.65216 183.094 7.65216H180.785Z" fill="white"/>
<path d="M69.6845 44.117H60V32.032H63.9313V41.0593H67.9586V32.032H71.8899V41.0593H73.5679V46.8834H69.8763L69.6845 44.117Z" fill="white"/>
<path d="M74.9563 35.4295C74.9563 34.3133 75.2919 33.3911 75.9151 32.7602C76.5384 32.1292 77.4493 31.7895 78.552 31.7895H83.0587C84.2093 31.7895 85.0723 32.1292 85.6955 32.7602C86.3188 33.3911 86.6544 34.3133 86.6544 35.4295V39.652H78.8876V40.5256C78.8876 40.7197 78.9835 40.9139 79.1273 41.0595C79.2711 41.2051 79.4629 41.2536 79.7026 41.2536C80.3259 41.2536 81.045 41.2536 81.8121 41.2536C82.5792 41.2536 83.2984 41.2536 83.9216 41.2536C84.6887 41.1565 85.4558 41.0595 86.2229 41.011V43.8745C85.3599 44.0201 84.449 44.0686 83.5381 44.0686C82.771 44.2142 81.908 44.2627 80.9971 44.2627C80.0862 44.2627 79.1753 44.2627 78.3602 44.2627C77.3534 44.2627 76.5384 43.9715 75.9151 43.3406C75.2919 42.7097 75.0042 41.8846 75.0042 40.8653V35.4295H74.9563ZM79.7985 34.653C79.1752 34.653 78.8876 34.9442 78.8876 35.5751V36.837H82.7231V35.5751C82.7231 34.9442 82.4354 34.653 81.8121 34.653H79.7985Z" fill="white"/>
<path d="M96.7305 36.4971V32.032H100.662V44.117H96.7305V39.5547H92.6553V44.117H88.724V32.032H92.6553V36.4971H96.7305Z" fill="white"/>
<path d="M109.67 35.0896V44.117H105.739V35.0896H101.999V32.032H113.362V35.0896H109.67Z" fill="white"/>
<path d="M118.685 44.1173V48H114.753V32.0323H118.253L118.493 33.1971C118.876 32.9544 119.308 32.7118 119.739 32.5176C120.123 32.372 120.554 32.1779 121.034 32.0323C121.513 31.8867 121.993 31.8382 122.52 31.8382H123.527C124.534 31.8382 125.349 32.1294 125.972 32.7603C126.595 33.3912 126.883 34.2163 126.883 35.2355V40.4772C126.883 41.5935 126.547 42.5157 125.924 43.1466C125.301 43.7775 124.39 44.1173 123.287 44.1173H118.685ZM118.685 41.0596H122.041C122.664 41.0596 122.952 40.7684 122.952 40.1375V35.915C122.952 35.6723 122.856 35.4782 122.712 35.3326C122.568 35.187 122.376 35.0899 122.137 35.0899H121.369C121.082 35.0899 120.794 35.0899 120.459 35.1385C120.123 35.187 119.835 35.2355 119.596 35.2841C119.26 35.3326 118.972 35.4297 118.685 35.5267V41.0596Z" fill="white"/>
</svg>
