<svg width="20" height="20" viewBox="0 0 20 20" fill="none" xmlns="http://www.w3.org/2000/svg">
<mask id="mask0_1001_3333" style="mask-type:alpha" maskUnits="userSpaceOnUse" x="0" y="0" width="20" height="20">
<rect width="20" height="20" fill="#D9D9D9"/>
</mask>
<g mask="url(#mask0_1001_3333)">
<path fill-rule="evenodd" clip-rule="evenodd" d="M1.63004 4.14125C1.21916 4.31789 1.10781 4.42409 1.21965 4.53267C1.26346 4.57524 2.36463 5.58036 3.66661 6.76635C4.96865 7.95228 6.74052 9.56929 7.60414 10.3596C8.53878 11.2149 9.22171 11.7992 9.29126 11.8031C9.5255 11.8162 9.62955 11.7831 9.81633 11.6361C9.99298 11.497 13.8975 8.06763 15.499 6.64491C15.8858 6.30135 16.5592 5.70431 16.9956 5.31818C17.4321 4.932 17.8097 4.59544 17.835 4.57023C17.9216 4.48367 17.7635 4.29553 17.4801 4.14785L17.1963 4L9.57437 4.00137L1.95238 4.00267L1.63004 4.14125ZM1 10.3916C1 13.0736 1.01861 15.268 1.04141 15.268C1.06416 15.268 2.32386 14.2304 3.84071 12.9621L6.59858 10.6562L6.34351 10.4113C6.20321 10.2766 5.01088 9.18498 3.69388 7.98546C2.37687 6.78598 1.23195 5.73943 1.14966 5.65987L1 5.51526V10.3916ZM17.1787 6.34881C14.0159 9.16142 12.6637 10.3546 12.518 10.4613C12.4191 10.5337 12.4149 10.554 12.4847 10.6227C12.7315 10.8655 18.0415 15.268 18.0875 15.268C18.1246 15.268 18.1429 13.6611 18.1429 10.4023C18.1429 7.72612 18.1314 5.53654 18.1175 5.53654C18.1035 5.53654 17.6811 5.90207 17.1787 6.34881ZM10.6871 12.0876C9.76207 12.9108 9.50993 13.0805 9.29556 13.0242C9.22716 13.0063 8.78737 12.6394 8.31826 12.2091C7.84914 11.7787 7.44512 11.4187 7.42046 11.4091C7.39581 11.3995 6.14427 12.4238 4.63929 13.6855L1.90291 15.9794L5.75505 15.994C7.87369 16.002 11.3213 16.002 13.4163 15.994L17.2255 15.9794L14.4377 13.6461C12.9044 12.3628 11.6353 11.3074 11.6175 11.3007C11.5996 11.2941 11.181 11.6482 10.6871 12.0876Z" fill="#E30613"/>
</g>
</svg>
