<svg width="20" height="20" viewBox="0 0 20 20" fill="none" xmlns="http://www.w3.org/2000/svg">
<mask id="mask0_1001_3327" style="mask-type:alpha" maskUnits="userSpaceOnUse" x="0" y="0" width="20" height="20">
<rect width="20" height="20" fill="#D9D9D9"/>
</mask>
<g mask="url(#mask0_1001_3327)">
<path fill-rule="evenodd" clip-rule="evenodd" d="M9.05574 17.8081C9.05574 17.8081 9.05595 17.8084 9.5 17.3571L9.05574 17.8081ZM9.94457 17.8078L9.94553 17.8068L9.94878 17.8034L9.96045 17.7911L10.0037 17.745C10.0412 17.7049 10.0954 17.6464 10.1639 17.5711C10.301 17.4206 10.4958 17.2028 10.729 16.9308C11.1948 16.3875 11.8172 15.6244 12.441 14.7473C13.0634 13.8721 13.6962 12.8709 14.1755 11.852C14.6506 10.8423 15 9.7632 15 8.74585C15 5.10884 12.1475 3 9.5 3C6.85255 3 4 5.10884 4 8.74585C4 9.7632 4.34943 10.8423 4.82448 11.852C5.30385 12.8709 5.93658 13.8721 6.55898 14.7473C7.18278 15.6244 7.80515 16.3875 8.27097 16.9308C8.5042 17.2028 8.69896 17.4206 8.83605 17.5711C8.90462 17.6464 8.95882 17.7049 8.99625 17.745L9.03955 17.7911L9.05122 17.8034L9.05447 17.8068L9.05574 17.8081C9.17291 17.9308 9.33307 18 9.5 18C9.66693 18 9.8274 17.9304 9.94457 17.8078ZM9.94457 17.8078L9.5 17.3571C9.94405 17.8084 9.94457 17.8078 9.94457 17.8078ZM7.5466 8.67143C7.5466 7.55897 8.42117 6.65714 9.5 6.65714C10.5788 6.65714 11.4534 7.55897 11.4534 8.67143C11.4534 9.78389 10.5788 10.6857 9.5 10.6857C8.42117 10.6857 7.5466 9.78389 7.5466 8.67143Z" fill="#E30613"/>
</g>
</svg>
