<svg width="20" height="20" viewBox="0 0 20 20" fill="none" xmlns="http://www.w3.org/2000/svg">
<mask id="mask0_1001_3328" style="mask-type:alpha" maskUnits="userSpaceOnUse" x="0" y="0" width="20" height="20">
<rect width="20" height="20" fill="#D9D9D9"/>
</mask>
<g mask="url(#mask0_1001_3328)">
<path fill-rule="evenodd" clip-rule="evenodd" d="M13.2745 13.4957C14.3037 13.835 15.4054 14.0181 16.5516 14.0181C16.7972 14.0181 17 14.2209 17 14.4665V17.5516C17 17.7972 16.7972 18 16.5516 18C8.51395 18 2 11.486 2 3.4484C2 3.20277 2.20277 3 2.4484 3H5.53347C5.7791 3 5.98187 3.20277 5.98187 3.4484C5.98187 4.5946 6.16498 5.69629 6.50433 6.72547L6.50589 6.73021C6.55556 6.89444 6.5135 7.06078 6.39639 7.17371L6.39321 7.17678L4.6086 8.9695L4.75086 9.24909C6.06636 11.8344 8.32374 13.9432 10.8902 15.2491L11.1855 15.3994L12.8165 13.5962L12.8259 13.5881C12.9512 13.4796 13.1166 13.4479 13.2697 13.4942L13.2745 13.4957Z" fill="#E30613"/>
</g>
</svg>
