<svg width="188" height="48" viewBox="0 0 188 48" fill="none" xmlns="http://www.w3.org/2000/svg"><path fill-rule="evenodd" clip-rule="evenodd" d="M10.11 4.696l.088.037c.114.047.21.087.315.147.62.339 1.241.681 1.863 1.024l.09.05c.938.517 1.877 1.034 2.824 1.544.09.044.268.089.357.022a18.288 18.288 0 013.483-1.442c.178-.066.29-.133.335-.333.19-.696.39-1.392.59-2.089l.387-1.327c.166-.57.332-1.139.496-1.708.156-.51.29-.621.826-.621h6.45c.469 0 .626.11.759.577l1.474 5.19c.02.05.053.11.097.164.052.065.12.123.192.147 1.206.377 2.344.865 3.46 1.442.157.089.29.089.447 0 1.57-.879 3.162-1.758 4.755-2.637l.044-.025c.247-.137.419-.18.587-.122a.927.927 0 01.328.233c1.54 1.531 3.08 3.062 4.62 4.614.313.31.358.488.135.887-.447.8-.888 1.592-1.328 2.385l-.863 1.551-.466.834c-.089.155-.089.244-.022.421.286.658.563 1.323.843 1.99l.006.017c.199.477.398.954.602 1.432a.57.57 0 00.312.288c1.017.298 2.034.588 3.055.88.727.208 1.457.416 2.191.628.447.134.558.289.558.733v6.5c0 .42-.134.576-.536.687-.925.268-1.85.535-2.776.8-.838.24-1.676.477-2.514.709-.156.044-.245.11-.29.288a20.31 20.31 0 01-1.429 3.438.553.553 0 000 .377 328.08 328.08 0 001.951 3.51l.706 1.26c.223.399.2.599-.112.931-.77.766-1.535 1.531-2.299 2.296l-1.357 1.357-.942.94c-.335.332-.492.354-.915.132-.793-.443-1.585-.881-2.378-1.32-.734-.406-1.469-.934-2.203-1.344v-6.655a14.453 14.453 0 004.717-10.69c0-8.026-6.547-14.532-14.623-14.532S10.377 16.82 10.377 24.845c0 4.228 1.817 8.035 4.717 10.69v6.647c-.887.502-1.781 1.12-2.678 1.617-.619.343-1.239.686-1.858 1.033-.424.244-.603.2-.96-.133a873.32 873.32 0 01-4.576-4.57c-.335-.332-.357-.51-.134-.931.292-.515.581-1.03.87-1.544l.458-.819c.441-.787.882-1.575 1.329-2.362a.452.452 0 00.022-.444c-.288-.663-.568-1.333-.85-2.007-.198-.476-.397-.954-.601-1.431a.564.564 0 00-.29-.267c-1.764-.51-3.549-1.02-5.335-1.53-.38-.111-.491-.288-.491-.666v-6.566c0-.4.111-.577.514-.688 1.74-.51 3.482-.998 5.245-1.486.245-.066.335-.2.424-.421.447-1.11.915-2.219 1.384-3.306.09-.177.09-.31 0-.465-.446-.788-.887-1.575-1.328-2.363-.44-.787-.882-1.575-1.328-2.363-.223-.421-.201-.576.134-.909.572-.569 1.141-1.137 1.709-1.706l1.939-1.94.95-.946a.26.26 0 01.076-.108c.046-.042.106-.078.17-.117l.07-.043c.021-.014.043-.028.063-.043l.087.038z" fill="#fff"/><path fill-rule="evenodd" clip-rule="evenodd" d="M31.01 32.432v-2.056l3.896-3.879v-7.4l-4.39-3.915c-.447-.399-1.18-.096-1.18.488v6.512l-4.248 1.714-4.882-1.706v-6.504c0-.602-.77-.897-1.208-.461l-3.904 3.892v7.361l4.343 3.879V42.19h1.22v-12.3l-4.342-3.878v-6.429l2.67-2.661v6.052l6.091 2.172 5.481-2.164v-6.17l3.128 2.79v6.39l-3.896 3.88V42.19H31v-9.758h.008zM24 28.615c0-.321-.273-.581-.61-.581-.337 0-.61.26-.61.581v4.094c0 .322.273.582.61.582.337 0 .61-.26.61-.582v-4.094zm3.617 0c0-.321-.273-.581-.61-.581-.337 0-.61.26-.61.581v7.542c0 .321.273.582.61.582.337 0 .61-.26.61-.582v-7.542z" fill="#fff"/><path d="M64.33 20.994c-1.492 0-2.55-.34-3.272-1.022C60.385 19.29 60 18.17 60 16.709V9.453c0-1.606.337-2.726 1.058-3.457.722-.73 1.876-1.071 3.464-1.071h8.129v3.214h-7.215c-.914 0-1.347.438-1.347 1.363v7.304c0 .341.096.634.288.828.193.195.481.293.818.293h3.415c.433 0 .818-.05 1.203-.195h2.838v2.97c-1.01.195-2.02.292-3.03.292h-5.292zm9.714-8.764c0-1.12.337-2.045.962-2.678.626-.633 1.54-.974 2.646-.974h4.521c1.155 0 2.02.34 2.646.974.625.633.962 1.558.962 2.678v4.236h-7.793v.877c0 .195.097.39.241.536.144.146.337.194.577.194h4.234c.77-.097 1.54-.194 2.31-.243v2.873c-.867.146-1.78.195-2.695.195-.77.146-1.635.195-2.549.195H77.46c-1.01 0-1.828-.293-2.453-.926-.625-.633-.914-1.46-.914-2.483V12.23h-.048zm4.859-.78c-.626 0-.915.293-.915.926v1.266h3.849v-1.266c0-.633-.289-.925-.914-.925h-2.02zm12.893 9.497v3.895h-3.944V8.822h3.512l.24 1.168c.385-.244.818-.487 1.25-.682.386-.146.819-.34 1.3-.487.48-.146.962-.194 1.49-.194h1.01c1.01 0 1.829.292 2.454.925.625.633.914 1.46.914 2.483v5.26c0 1.12-.337 2.044-.962 2.678-.625.633-1.54.974-2.646.974h-4.618zm0-3.068h3.368c.625 0 .914-.293.914-.926v-4.236a.811.811 0 00-.24-.584.792.792 0 00-.578-.244h-.77c-.288 0-.577 0-.914.049-.336.048-.625.097-.865.146a5.096 5.096 0 00-.915.243v5.552zm22.27-.146c0 .438-.096.876-.241 1.266-.144.39-.385.73-.673 1.022a2.664 2.664 0 01-1.058.682 4.191 4.191 0 01-1.395.243h-8.611V8.821h7.889c.529 0 .962.098 1.395.244.433.146.77.39 1.058.681.289.293.529.633.674.974.144.39.24.78.24 1.218 0 .633-.144 1.217-.481 1.655-.336.487-.769.78-1.347.974.674.146 1.251.439 1.732 1.023.577.487.818 1.217.818 2.143zm-4.618-5.357a.812.812 0 00-.24-.584.794.794 0 00-.578-.244h-2.597v2.094h2.597a.794.794 0 00.578-.243.812.812 0 00.24-.585v-.438zm.673 4.675a.812.812 0 00-.24-.585.792.792 0 00-.577-.243h-3.271v1.948h3.271c.24 0 .433-.098.577-.244a.812.812 0 00.24-.584v-.292zm13.325-8.23h4.185v12.125h-3.944v-6.622l-3.848 6.622h-4.185V8.821h3.944v6.623l3.848-6.623zm6.207 3.652c0-1.12.336-2.045.962-2.678.625-.633 1.539-.974 2.645-.974h7.216v3.068h-6.013c-.625 0-.914.292-.914.925v4.432c0 .243.096.438.241.584a.79.79 0 00.577.243h1.924c.721 0 1.395-.048 1.972-.097.722-.049 1.443-.146 2.165-.195v2.97c-.866.147-1.684.195-2.55.195-.721.146-1.539.195-2.405.195h-2.501c-1.01 0-1.828-.292-2.453-.925-.626-.633-.914-1.46-.914-2.483v-5.26h.048zm20.679.828v-4.48h3.944v12.125h-3.944V16.37h-4.089v4.577h-3.896V8.821h3.945v4.48h4.04zm6.257 7.645V8.821h3.944v3.799h4.425c1.011 0 1.828.292 2.454.925.625.633.914 1.46.914 2.483v1.51c0 1.022-.289 1.85-.914 2.483-.626.633-1.443.925-2.454.925h-8.369zm6.974-2.873a.794.794 0 00.578-.243.812.812 0 00.24-.584v-1.023a.812.812 0 00-.24-.584.794.794 0 00-.578-.244h-3.03v2.63h3.03v.048zm10.198 2.873h-3.944V8.821h3.944v12.125zM183.815 8.82H188v12.126h-3.944v-6.623l-3.848 6.623h-4.185V8.821h3.944v6.622l3.848-6.622zm-3.03-1.168c-1.972 0-2.934-.974-2.934-2.97V4h2.934v.584c0 .244.096.439.24.585a.793.793 0 00.577.243h.674c.24 0 .433-.097.577-.243a.813.813 0 00.241-.585V4h2.934v.682c0 1.996-.962 2.97-2.934 2.97h-2.309zM69.684 44.117H60V32.032h3.931v9.027h4.028v-9.027h3.93v9.027h1.679v5.824h-3.692l-.192-2.766zm5.272-8.687c0-1.117.336-2.039.96-2.67.622-.63 1.533-.97 2.636-.97h4.507c1.15 0 2.013.34 2.636.97.624.631.96 1.553.96 2.67v4.222h-7.767v.874a.78.78 0 00.24.533c.143.146.335.195.575.195h4.219a36.94 36.94 0 012.3-.243v2.863c-.862.146-1.773.195-2.684.195-.767.145-1.63.194-2.54.194H78.36c-1.007 0-1.822-.291-2.445-.922-.623-.631-.91-1.456-.91-2.476V35.43h-.049zm4.843-.777c-.624 0-.911.291-.911.922v1.262h3.835v-1.262c0-.63-.288-.922-.91-.922h-2.014zm16.931 1.844v-4.465h3.932v12.085h-3.931v-4.562h-4.076v4.562h-3.931V32.032h3.931v4.465h4.076zm12.94-1.407v9.027h-3.931V35.09h-3.74v-3.058h11.363v3.058h-3.692zm9.015 9.027V48h-3.932V32.032h3.5l.24 1.165c.383-.243.815-.485 1.246-.68.384-.145.815-.34 1.295-.485.479-.145.959-.194 1.486-.194h1.007c1.007 0 1.822.291 2.445.922.623.631.911 1.456.911 2.476v5.241c0 1.117-.336 2.039-.959 2.67-.623.63-1.534.97-2.637.97h-4.602zm0-3.057h3.356c.623 0 .911-.292.911-.922v-4.223a.808.808 0 00-.24-.582.79.79 0 00-.575-.243h-.768c-.287 0-.575 0-.91.048-.336.049-.624.098-.863.146a4.988 4.988 0 00-.911.243v5.533z" fill="#fff"/></svg>