<svg width="20" height="20" viewBox="0 0 20 20" fill="none" xmlns="http://www.w3.org/2000/svg"><mask id="mask0_1001_3333" style="mask-type:alpha" maskUnits="userSpaceOnUse" x="0" y="0" width="20" height="20"><path fill="#D9D9D9" d="M0 0h20v20H0z"/></mask><g mask="url(#mask0_1001_3333)"><path fill-rule="evenodd" clip-rule="evenodd" d="M1.63 4.141c-.41.177-.522.283-.41.392a829.75 829.75 0 002.447 2.233 2851.1 2851.1 0 013.937 3.594c.935.855 1.618 1.44 1.687 1.443.234.013.339-.02.525-.167.177-.139 4.082-3.568 5.683-4.991l1.497-1.327c.436-.386.814-.723.839-.748.087-.086-.072-.274-.355-.422L17.196 4l-7.622.001-7.622.002-.322.138zM1 10.391c0 2.683.019 4.877.041 4.877.023 0 1.283-1.038 2.8-2.306l2.758-2.306-.255-.245c-.14-.134-1.333-1.226-2.65-2.426A535.738 535.738 0 011.15 5.66L1 5.515v4.877zM17.179 6.35c-3.163 2.812-4.515 4.006-4.661 4.112-.099.073-.103.093-.033.162.247.243 5.556 4.645 5.602 4.645.038 0 .056-1.607.056-4.866 0-2.676-.012-4.865-.026-4.865-.014 0-.436.365-.938.812zm-6.492 5.739c-.925.823-1.177.993-1.391.936-.069-.018-.509-.385-.978-.815-.469-.43-.873-.79-.898-.8-.024-.01-1.276 1.015-2.78 2.276L1.902 15.98l3.852.015c2.119.008 5.566.008 7.661 0l3.81-.015-2.788-2.333a300.134 300.134 0 00-2.82-2.345c-.018-.007-.437.347-.93.787z" fill="#E30613"/></g></svg>