<svg width="20" height="20" viewBox="0 0 20 20" fill="none" xmlns="http://www.w3.org/2000/svg"><mask id="mask0_1001_3327" style="mask-type:alpha" maskUnits="userSpaceOnUse" x="0" y="0" width="20" height="20"><path fill="#D9D9D9" d="M0 0h20v20H0z"/></mask><g mask="url(#mask0_1001_3327)"><path fill-rule="evenodd" clip-rule="evenodd" d="M9.056 17.808l.444-.45-.444.45zm.889 0v-.001l.004-.004.011-.012.044-.046.16-.174a31.158 31.158 0 002.277-2.824c.622-.875 1.255-1.876 1.735-2.895.475-1.01.824-2.089.824-3.106C15 5.109 12.148 3 9.5 3 6.853 3 4 5.109 4 8.746c0 1.017.35 2.096.824 3.106.48 1.019 1.113 2.02 1.735 2.895a31.152 31.152 0 002.437 2.998l.044.046.011.012.003.004.002.001A.615.615 0 009.5 18a.62.62 0 00.445-.192zm0 0l-.445-.45.445.45zM7.547 8.67c0-1.112.874-2.014 1.953-2.014 1.079 0 1.953.902 1.953 2.014 0 1.113-.874 2.015-1.953 2.015-1.079 0-1.953-.902-1.953-2.015z" fill="#E30613"/></g></svg>