<svg width="20" height="20" viewBox="0 0 20 20" fill="none" xmlns="http://www.w3.org/2000/svg"><mask id="mask0_1001_3328" style="mask-type:alpha" maskUnits="userSpaceOnUse" x="0" y="0" width="20" height="20"><path fill="#D9D9D9" d="M0 0h20v20H0z"/></mask><g mask="url(#mask0_1001_3328)"><path fill-rule="evenodd" clip-rule="evenodd" d="M13.274 13.496c1.03.339 2.131.522 3.278.522.245 0 .448.203.448.448v3.086a.451.451 0 01-.448.448C8.514 18 2 11.486 2 3.448 2 3.203 2.203 3 2.448 3h3.085c.246 0 .449.203.449.448 0 1.147.183 2.248.522 3.277l.002.005c.05.164.007.33-.11.444l-.003.003L4.61 8.97l.142.28c1.315 2.584 3.573 4.693 6.14 6l.294.15 1.631-1.804.01-.008a.466.466 0 01.444-.094l.005.002z" fill="#E30613"/></g></svg>